<svg xmlns="http://www.w3.org/2000/svg" width="479.28" height="418.611" xmlns:v="https://vecta.io/nano"><defs><clipPath id="A"><path d="M0 792h612V0H0z" transform="translate(-444.521 -299.109)"/></clipPath><clipPath id="B"><path d="M0 792h612V0H0z" transform="translate(-461.466 -488.859)"/></clipPath><clipPath id="C"><path d="M0 792h612V0H0z" transform="translate(-467.36 -317.592)"/></clipPath><clipPath id="D"><path d="M0 792h612V0H0z" transform="translate(-308.136 -298.123)"/></clipPath><clipPath id="E"><path d="M330.763 480.928l-2.566-.535h0l-3.551-1.08h0l-2.933-1.08h0l-2.799-1.08h0l-2.958-1.08h0l-.636-.212h0l-.362-.868-.452-1.079-.452-1.08-.453-1.08-.451-1.08-.452-1.08-.452-1.079-.452-1.08-.452-1.08-.451-1.08-.451-1.079-.453-1.08-.452-1.08-.452-1.08-.451-1.079-.452-1.08-.453-1.08-.451-1.08-.451-1.08-.452-1.08-.451-1.08-.452-1.079-.452-1.081-.452-1.079-.451-1.08-.452-1.08-.453-1.08-.452-1.079-.451-1.081-.452-1.079-.451-1.08-.452-1.08-.453-1.079-.452-1.08-.451-1.08-.452-1.079-.452-1.081-.451-1.08-.132-.315-.313-.764-.442-1.08-.442-1.079-.441-1.08-.442-1.08-.042-.104-.235-.976-.26-1.08-.259-1.08-.26-1.078v-.001l-.258-1.079-.259-1.08-.26-1.08-.26-1.079-.259-1.08-.26-1.08-.258-1.08-.26-1.08-.26-1.08-.26-1.079-.259-1.08-.259-1.08-.259-1.08-.259-1.08-.26-1.08-.26-1.079-.259-1.081-.259-1.079-.259-1.08-.26-1.08-.26-1.079-.26-1.08-.258-1.081-.259-1.079-.26-1.08-.26-1.08-.259-1.079-.259-1.079-.259-1.08-.259-1.08-.259-1.081-.261-1.08-.26-1.08-.258-1.078-.26-1.08-.259-1.08-.26-1.08-.26-1.08-.259-1.08-.258-1.078-.26-1.08-.259-1.08-.235-.981-.031-.099-.321-1.08-.322-1.08-.152-.514-.732-.567h0l-1.317-1.077h0l-1.434-1.081h0a10.03 10.03 0 0 0-1.114-.655h0l-.903-.425h0c-.96-.431-1.953-.807-2.965-1.08h0c-.745-.201-1.499-.348-2.262-.424h0c-2.733-.271-5.712-.664-8.238.424h0l-.132.058c-.422.192-.644.563-.773 1.022h0c-.092.328-.136.699-.168 1.08h0l-.101 1.081h0a4.27 4.27 0 0 1-.138.679h0l.212.398.569 1.081.569 1.08.569 1.08.569 1.08.569 1.08.57 1.08.569 1.078.57 1.08.068.131.481.949.54 1.08h0l.533 1.08h0l.524 1.08h0l.515 1.078h0l.506 1.08h0l.497 1.08h0l.486 1.081h0l.475 1.08h0l.464 1.08h0l.452 1.079h0l.439 1.079h0l.427 1.08h0l.414 1.08h0l.399 1.079h0l.385 1.081h0l.37 1.08h0l.353 1.079h0l.341 1.08h0l.322 1.08h0l.306 1.079h0l.289 1.081h0l.272 1.079h0l.253 1.08h0l.237 1.08h0l.218 1.08h0l.2 1.08h0l.029.168a6.42 6.42 0 0 1 .092.912h0c.011.359-.004.72-.047 1.079h0c-.043.365-.114.728-.21 1.08h0a7.05 7.05 0 0 1-.392 1.08h0l-.032.072-.481 1.008-.525 1.08h0l-.552 1.08h0l-.59 1.079h0l-.65 1.08h0l-.734 1.08h0l-.851 1.079h0v.001a13.97 13.97 0 0 1-1.029 1.078h0l-.129.12c-1.087.994-2.912.537-4.361.361h0l-3.372-.481h0c-1.063-.219-2.091-.541-3.017-1.078h0l-.001-.001-.211-.128h0l-1.393-.951h0l-1.373-1.08h0l-1.239-1.08h0l-1.161-1.079h0l-1.122-1.08h0l-1.11-1.08h0l-1.128-1.08h0l-1.179-1.08h0l-.198-.176.651-.904h0l.678-1.079h0l.566-1.08h0l.458-1.08h0l.353-1.08h0l.257-1.08h0l.165-1.08h0l.081-1.079h0l.003-1.081h0l-.03-.59h0l-.034-.489-.076-1.08-.081-1.08-.081-1.079-.085-1.08-.087-1.081-.09-1.079-.092-1.08-.093-1.08-.094-1.079-.097-1.079-.098-1.08-.098-1.08-.101-1.081-.099-1.08-.102-1.08-.103-1.078-.102-1.08-.101-1.08-.103-1.08-.101-1.08-.103-1.08-.101-1.078-.1-1.08-.099-1.08-.098-1.08-.097-1.08-.077-.871-.14-.209-.709-1.081h0l-.693-1.077h0l-.683-1.081h0l-.68-1.08-.682-1.08h0l-.692-1.08h0l-.708-1.08h0l-.73-1.08h0l-.762-1.078h0l-.802-1.081h0l-.735-.935h0c-.04-.051-.084-.098-.127-.145h0c-.519-.549-1.264-.837-2.006-1.08h0l-.697-.223h0c-.747-.245-1.636-.771-2.414-.857h0c-.136-.013-.269-.016-.397 0h0c-.219.028-.422.106-.608.254h0c-.301.241-.572.52-.812.826h0c-.259.331-.484.695-.678 1.08h0c-.175.346-.324.708-.453 1.08h0c-.121.354-.224.717-.308 1.081h0l-.202 1.078h0l-.022.162-.108.918h0l-.091 1.08h0l-.058 1.08h0l-.026 1.08h0l.003 1.08h0l.029 1.081h0l.056 1.077h0l.079 1.081h0l.098 1.08h0l.119 1.08h0l.134 1.066h0l.002.014.156 1.08h0l.177 1.08h0l.195 1.078h0l.215 1.08h0l.228 1.08h0l.241 1.08h0l.25 1.08h0l.258 1.08h0l.262 1.078.264 1.08.262 1.08.261 1.081.254 1.08h0l.247 1.08h0l.148.671h0l.135.408.362 1.079.362 1.08.36 1.08.362 1.079.362 1.081.36 1.08.361 1.079.362 1.08.361 1.08.362 1.079.362 1.081.21.63.159.449.379 1.08.377 1.08.377 1.08.374 1.08.374 1.08.372 1.079.372 1.08.37 1.08.37 1.08.369 1.08.369 1.08.367 1.079.367 1.08.367 1.08.367 1.079v.001l.368 1.078.367 1.08.367 1.08.369 1.08.368 1.08.369 1.08.371 1.079.371 1.08.371 1.079.372 1.08.375 1.081.375 1.079.377 1.08.379 1.08.38 1.079.381 1.08.385 1.08.386 1.079.388 1.081.39 1.079.394 1.08.395 1.08.398 1.08.402 1.079.404 1.081.407 1.079.411 1.08.414 1.08.418 1.08.422 1.08.066.169.412.911h0a13.2 13.2 0 0 0 .624 1.08h0l.743 1.079h0l.812 1.08h0l.825 1.08h0l.769 1.08h0l.648 1.049h0l.017.03a7.11 7.11 0 0 1 .488 1.08h0c.123.352.217.713.27 1.08h0c.029.193.047.389.05.585h0c.004.167-.011.331-.039.495h0c-.061.364-.186.722-.312 1.079h0c-.126.356-.254.715-.321 1.08h0l-.034.24h0c-.03.275-.03.555-.014.84h0l.116 1.08h0l.118 1.08h0a4.6 4.6 0 0 1-.037 1.079h0a2.61 2.61 0 0 1-.302.868h0l-.129.212h0a6.23 6.23 0 0 1-.873 1.08h0c-.406.405-.865.765-1.356 1.08h0c-.702.451-1.467.81-2.226 1.08h0l-.132.046c-2.905.994-5.882.762-8.906-.046h0c-1.1-.294-2.207-.664-3.319-1.08h0l-1.449-.563h0l-1.227-.517h0l-1.838-.81h0l-.65-.27h0l-2.48-1.08h0l-.171-.097a1.95 1.95 0 0 1-.855-.982h0c-.132-.326-.193-.69-.241-1.08h0l-.136-1.08h0l-.065-.357h0c-.073-.347-.377-.554-.738-.723h0c-.626-.292-1.425-.472-1.501-1.08h0v-.006c-.043-.36-.046-.718-.021-1.073h0c.027-.362.083-.722.159-1.08h0l.278-1.08h0l.335-1.08h0l.327-1.079h0l.219-.881h0v-.199-1.08-1.08-.174c-.252-.317-.549-.605-.825-.905h0c-.285-.313-.546-.639-.708-1.025h0l-.023-.055-.446-1.08h0l-.432-1.08h0l-.417-1.08h0l-.405-1.08h0l-.388-1.08h0l-.372-1.079h0l-.357-1.081h0l-.339-1.079h0l-.322-1.08h0l-.272-.963h0l-.032-.117-.297-1.08-.295-1.079-.296-1.081-.293-1.079-.294-1.08-.293-1.08-.291-1.079-.292-1.08-.291-1.08-.289-1.079-.289-1.081-.289-1.08-.288-1.079-.288-1.08-.286-1.079-.287-1.08-.286-1.08-.285-1.08-.286-1.08-.284-1.08-.283-1.078v-.001l-.284-1.079-.283-1.08-.283-1.08-.283-1.079-.282-1.08-.281-1.08-.282-1.08-.281-1.08-.281-1.08-.28-1.079-.282-1.08-.28-1.08-.281-1.08-.279-1.08-.28-1.08-.28-1.079-.28-1.081-.28-1.079-.279-1.08-.28-1.08-.28-1.079-.28-1.08-.279-1.081-.28-1.079-.279-1.08-.28-1.08-.28-1.079-.28-1.079-.28-1.08-.281-1.08-.281-1.081-.281-1.08-.28-1.08-.282-1.078-.282-1.08-.281-1.08-.282-1.08-.283-1.08-.282-1.08-.284-1.078-.283-1.08-.052-.197-1.033-.883h0l-1.223-1.08h0l-1.195-1.08h0l-1.185-1.08-1.185-1.081h0l-1.2-1.077h0l-1.234-1.081h0l-1.284-1.08h0l-1.355-1.08h0l-1.462-1.08h0l-1.384-.935h0a2.16 2.16 0 0 0-.268-.145h0c-.685-.307-1.543-.254-2.317 0h0c-.383.127-.744.3-1.055.506h0a7.79 7.79 0 0 0-.774.574h0c-.392.328-.746.689-1.062 1.08h0c-.275.34-.521.699-.737 1.08h0c-.197.344-.37.705-.516 1.08h0c-.137.348-.251.709-.344 1.081h0c-.087.349-.156.71-.203 1.077h0c-.046.354-.073.715-.081 1.081h0c-.008.355.003.714.033 1.08h0l.136 1.08h0l.236 1.08h0l.305.993h0l.029.087.379 1.08h0l.385 1.078h0l.39 1.08h0l.396 1.08.401 1.08.406 1.08.41 1.08.415 1.078.418 1.08.424 1.08.426 1.081.429 1.08.433 1.08.436 1.079.438 1.079.439 1.08.442 1.08.444 1.079.445 1.081.446 1.08.446 1.079.448 1.08.446 1.08.447 1.079.447 1.081.446 1.079.445 1.08.443 1.08.442 1.08.439 1.08.44 1.08.434 1.079.433 1.08.329.822.205.258.851 1.064.003.016.159 1.08h0l.083 1.08h0c.011.373-.001.734-.041 1.079h0c-.045.381-.126.743-.252 1.08h0c-.15.397-.362.76-.653 1.08h0c-.415.454-.987.823-1.766 1.079h0l-.002.001a7.1 7.1 0 0 1-.936.235h0c-1.273.393-2.545.657-3.817.843h0c-2.642.388-5.284.439-7.927.599h0a4.63 4.63 0 0 1-.364.481h0c-.385.446-.846.802-1.371 1.08h0c-1.361.723-3.156.928-5.194.842h0l-.265.238h0l-1.105 1.08h0l-1.038 1.08h0l-1.069 1.079h0l-1.225 1.08h0c-.523.413-1.075.781-1.671 1.079h0l-.092.047c-1.815.878-4.013.551-6.012.362h0a24.43 24.43 0 0 1-2.618-.409h0l-4.516-1.079h0l-.883-.202h0c-.954-.207-1.917-.504-2.88-.878h0a24.01 24.01 0 0 1-2.368-1.079h0l-1.881-1.08h0l-1.609-1.08h0l-1.428-1.08h0l-1.289-1.08h0l-1.182-1.08h0l-1.092-1.078h0l-.001-.001-1.017-1.079h0l-.95-1.08h0l-.891-1.08h0l-.838-1.079h0l-.789-1.08h0l-.742-1.08h0l-.7-1.08h0l-.659-1.08h0l-.314-.538h0l-.31-.542-.607-1.079h0l-.593-1.08h0l-.582-1.08h0l-.568-1.08h0l-.557-1.08h0l-.544-1.08h0l-.533-1.079h0l-.523-1.081h0l-.512-1.079h0l-.501-1.08h0l-.492-1.08h0l-.48-1.079h0l-.474-1.08h0l-.462-1.081h0l-.454-1.079h0l-.445-1.08h0l-.438-1.08h0l-.428-1.079h0l-.421-1.079h0l-.414-1.08h0l-.405-1.08h0l-.399-1.081h0l-.393-1.08h0l-.385-1.08h0l-.378-1.078h0l-.372-1.08h0l-.366-1.08h0l-.361-1.08-.354-1.08-.349-1.08h0l-.345-1.078-.338-1.08h0l-.336-1.08h0l-.33-1.08-.325-1.08-.26-.871-.061-.209-.294-1.081h0l-.26-1.077h0l-.232-1.081h0l-.207-1.08h0l-.184-1.08h0l-.166-1.08h0l-.153-1.08h0l-.141-1.08h0l-.07-.561-.06-.517h0l-.103-1.081h0l-.07-1.08h0l-.034-1.08h0l.009-1.08h0l.051-1.078h0l.102-1.08h0l.159-1.08h0l.22-1.08h0l.293-1.08h0l.373-1.081h0l.47-1.08h0l.581-1.078h0l.714-1.08h0c.27-.371.563-.73.878-1.08h0a14.34 14.34 0 0 1 1.083-1.08h0a15.23 15.23 0 0 1 1.363-1.08h0a17.16 17.16 0 0 1 1.751-1.08h0l.119-.065c.706-.372 1.459-.718 2.243-1.015h0c1.495-.564 3.097-.961 4.678-1.08h0c.635-.047 1.266-.048 1.885 0h0c1.172.096 2.303.375 3.336.889h0l.379.191h0l1.963 1.08h0l1.734 1.08h0l1.573 1.08h0l1.449 1.08h0l1.351 1.08h0l1.273 1.08h0l1.208 1.078h0l1.154 1.08h0l1.106 1.081h0l1.069 1.08h0l1.037 1.08h0l1.009 1.08h0l.988 1.08h0l.969 1.078h0l.957 1.08h0l.947 1.08.945 1.08.948 1.081.458.517c.373.42 1.404.022 1.623-.517h0a.57.57 0 0 0 .027-.086h0l.243-.995h0l.3-1.08h0l.352-1.08h0l.424-1.08h0l.52-1.078h0c.195-.369.409-.73.644-1.08h0c.251-.375.525-.736.826-1.08h0c.334-.383.701-.746 1.106-1.08h0l.655-.494h0l.912-.586h0c.688-.408 1.415-.776 2.167-1.081h0c1.929-.781 4.019-1.165 5.998-.866h0c1.377.207 2.705.499 3.995.866h0l3.201 1.081h0l2.53 1.08h0l2.186 1.08h0l1.981 1.08h0l1.854 1.08h0l1.772 1.078h0l1.73 1.08h0l1.719 1.08 1.736 1.08h0l1.788 1.081h0l.264.156-.012-.156-.072-1.081h0l-.044-1.08h0l-.013-1.08h0l.024-1.08h0l.068-1.078h0l.118-1.08h0l.173-1.08h0l.24-1.08h0l.314-1.08h0l.402-1.081h0l.503-1.08h0l.628-1.078h0a13.13 13.13 0 0 1 .774-1.08h0a13.51 13.51 0 0 1 .956-1.08h0l.421-.409h0l.759-.671h0l1.434-1.08h0c.582-.394 1.188-.756 1.811-1.08h0a16.97 16.97 0 0 1 2.566-1.08h0l1.093-.31h0c2.903-.718 6.288-1.249 8.96.119h0l.369.191 1.952 1.08h0l1.767 1.08h0l1.624 1.08h0l1.507 1.08h0l1.409 1.08h0l1.33 1.08h0l1.26 1.078h0l1.202 1.08h0l1.148 1.081h0l1.104 1.08h0l1.064 1.08h0l1.031 1.08h0l.998 1.08h0l.971 1.078h0l.947 1.08h0l.927 1.08h0l.909 1.08h0l.525.633.906-.633h0l1.431-1.08h0l1.423-1.08h0l1.577-1.08h0a13.52 13.52 0 0 1 2.09-1.074h0l.015-.004c1.251-.498 2.601-.902 3.96-1.08h0c.946-.125 1.896-.138 2.819 0h0l.634.119h0c.952.221 1.867.554 2.759.961h0a23.67 23.67 0 0 1 2.07 1.078h0l1.753 1.08h0l1.652 1.08h0l.96.628h0c.204.13.39.282.563.452h0c.331.321.615.7.898 1.081h0l.779.999h0l.006-.999h0l.029-1.081h0l.058-1.08h0l.089-1.08h0l.123-1.08h0l.163-1.078h0l.205-1.08h0l.252-1.08h0l.307-1.08h0l.367-1.08h0l.432-1.081h0l.508-1.08h0l.594-1.078h0l.167-.277h0l.527-.803h0l.818-1.08h0l.974-1.08h0c.38-.382.778-.744 1.195-1.08h0a12.79 12.79 0 0 1 1.566-1.08h0l.815-.426h0l1.375-.654h0l2.319-1.08h0l2.542-1.078h0c1.074-.42 2.16-.791 3.254-1.08h0c1.924-.508 3.876-.76 5.836-.572h0a34.44 34.44 0 0 1 3.749.572h0a33.83 33.83 0 0 1 3.952 1.08h0l2.788 1.078h0l2.27 1.08h0l1.959 1.08h0l1.748 1.08h0l1.596 1.08h0l1.483 1.08h0l1.392 1.08h0l1.321 1.08h0l1.265 1.078h0l1.22 1.08h0l1.186 1.081h0l1.158 1.08h0l1.135 1.08h0l1.122 1.08h0l1.114 1.08 1.112 1.078 1.114 1.08 1.124 1.08h0l.025.024.007-.024.296-1.08.296-1.08.297-1.078.165-.597.24-.483h0l.57-1.08h0l.625-1.08h0l.684-1.08h0l.757-1.081h0l.844-1.08h0l.946-1.078h0l1.079-1.08h0l1.25-1.08h0l1.489-1.08h0a19.57 19.57 0 0 1 1.857-1.08h0c.801-.41 1.647-.771 2.537-1.08h0l.561-.185h0l3.138-.895h0c2.691-.668 5.457-1.06 8.18-.794h0a38.48 38.48 0 0 1 4.811.794h0l3.854 1.08h0l2.947 1.08h0l2.489 1.08h0l.399.188 1.749.892h0l1.867 1.08h0l1.7 1.08h0l1.597 1.078h0l1.536 1.08h0l1.508 1.081h0l1.509 1.08h0l1.538 1.08h0l1.598 1.08h0l.37.241 1.36.839h0l1.827 1.078h0l1.696 1.08h0l1.011.743h0l.414.337h0a12.75 12.75 0 0 1 1.138 1.08h0c.317.341.61.7.875 1.081h0l.402.638h0l.246.44h0l.572 1.08h0l.536 1.08h0l.509 1.08h0l.489 1.08h0l.476 1.08h0l.47 1.081.469 1.077.476 1.081h0l.491 1.08h0l.1.214.11.866.136 1.08.107.83-.154.25-.667 1.08-.593.961-1.025-.961h0l-1.139-1.08h0l-1.129-1.08h0l-1.124-1.08-1.123-1.08-1.13-1.08-1.139-1.081h0l-1.152-1.077h0l-1.174-1.081h0l-1.2-1.08h0l-1.233-1.08h0l-.635-.543h0l-.643-.537h0l-1.384-1.08h0l-1.559-1.08h0l-1.872-1.078h0l-.673-.326h0l-1.72-.755h0l-2.819-1.08h0l-3.396-1.08h0l-2.674-.705h0l-1.413-.375h0c-2.133-.585-4.361-1.205-6.368-.47h0c-.365.132-.722.291-1.068.47h0c-.586.303-1.146.668-1.677 1.08h0a13.88 13.88 0 0 0-1.227 1.08h0l-.998 1.08h0l-.843 1.081h0l-.732 1.078h0l-.174.283h0a7.81 7.81 0 0 0-.426.797h0c-.162.35-.298.711-.416 1.08h0l-.282 1.08h0l-.188 1.08h0l-.118 1.08h0l-.068 1.081h0l-.034 1.077h0l-.002.084c-.007.34.041.67.123.997h0c.091.364.227.724.378 1.08h0l.477 1.08h0l.319.824h0l.814.256 2.252.709h3.536 0c2.791-.113 5.654-1.153 8.37-.482h0l2.849.853h0a28.22 28.22 0 0 1 2.634 1.08h0l2.069 1.078h0l1.71 1.08h0l1.448 1.08h0l.018.015 1.284 1.065h0l1.237 1.08h0l1.176 1.08h0l1.116 1.078h0l1.064 1.08h0l1.009 1.08h0l.961 1.081h0l.913 1.08h0l.867 1.08h0l.822 1.079h0l.78 1.079h0l.737 1.08h0l.294.448h0l.398.632h0l.63 1.079h0l.575 1.081h0l.525 1.08h0l.48 1.079h0l.438 1.08h0l.4 1.08h0l.367 1.079h0l.333 1.081h0l.304 1.079h0l.276 1.08h0l.25 1.08h0l.212 1.001h0l.015.079.212 1.08h0l.201 1.08h0l.18 1.079h0l.147 1.08h0l.109 1.08h0l.056 1.08h0l-.009 1.08h0l-.088 1.08h0a11.15 11.15 0 0 1-.185 1.079h0a9.5 9.5 0 0 1-.305 1.08h0a8.56 8.56 0 0 1-.452 1.066h0l-.006.014-.556 1.079h0l-.001.001-.573 1.078h0l-.598 1.08h0l-.63 1.08h0l-.671 1.08h0l-.722 1.08h0l-.789 1.08h0l-.877 1.079h0l-1.002 1.08h0l-1.192 1.079h0a12.57 12.57 0 0 1-1.539 1.08h0c-.811.481-1.669.85-2.575 1.081h0l-.882.178h0c-2.34.345-4.82.17-7.34-.178h0l-6.588-1.081h0l-3.402-.43h0c-1.258-.109-2.493-.341-3.714-.65h0l-3.535-1.079h0l-2.989-1.08h0l-3.051-1.079h0l-1.448-.454h0l-.3-.626-.519-1.08-.52-1.08-.52-1.08-.52-1.08-.519-1.078v-.001l-.521-1.079-.518-1.08-.52-1.08-.519-1.079-.521-1.08-.519-1.08-.519-1.08-.52-1.08-.52-1.08-.519-1.079-.519-1.08-.52-1.08-.52-1.08-.52-1.08-.519-1.08-.521-1.079-.519-1.081-.519-1.079-.519-1.08-.521-1.08-.519-1.079-.519-1.08-.521-1.081-.475-.987-.025-.092-.301-1.08-.299-1.08-.3-1.079-.301-1.079-.3-1.08-.3-1.08-.3-1.081-.3-1.08-.3-1.08-.3-1.078-.299-1.08-.301-1.08-.3-1.08-.3-1.08-.3-1.08-.3-1.078-.299-1.08-.301-1.08-.3-1.08-.3-1.08-.301-1.08-.299-1.081-.211-.761-.34-.316-1.111-1.081h0l-1.072-1.08h0l-1.063-1.08h0l-1.083-1.08h0l-1.138-1.08h0l-1.233-1.08h0l-1.392-1.078h0l-.292-.207h0l-1.319-.874h0l-1.805-1.08h0l-2.028-1.08h0l-2.287-1.08h0l-2.592-1.078h0l-.932-.357h0c-1.079-.404-2.228-.633-3.388-.723h0a15.76 15.76 0 0 0-2.39 0h0c-1.464.106-2.994.431-4.377 1.08h0c-.623.291-1.214.646-1.758 1.078h0c-.401.319-.776.678-1.116 1.08h0c-.277.331-.534.69-.761 1.08h0c-.197.336-.371.696-.525 1.08h0a8.89 8.89 0 0 0-.354 1.081h0l-.066.275h0l-.155.803h0l-.122 1.08h0l-.037 1.08h0l.033 1.08h0l.088 1.08h0l.132 1.08h0l.16 1.081h0l.177 1.077h0l.181 1.081.174 1.08h0l.152 1.08h0l.12 1.08h0l.039.469h0l.615.611 1.087 1.08 1.088 1.078 1.087 1.08 1.088 1.08 1.088 1.08 1.088 1.08 1.087 1.08 1.088 1.078 1.087 1.08 1.087 1.08 1.088 1.081 1.088 1.08 1.087 1.08 1.087 1.079.076.074.851 1.005.917 1.08.915 1.08.917 1.079.912 1.081.909 1.08.902 1.079.898 1.08h0l.889 1.08h0l.881 1.079h0l.873 1.081h0l.86 1.079h0l.85 1.08h0l.837 1.08h0l.822 1.08h0l.809 1.08h0l.794 1.08h0l.78 1.079h0l.761 1.08h0l.746 1.08h0l.729 1.08h0l.711 1.08h0l.692 1.08h0l.674 1.079h0l.655 1.08h0l.636 1.08h0l.615 1.079h0l.001.001.596 1.078h0l.577 1.08h0l.558 1.08h0l.128.252.405.828h0l.498 1.08h0l.469 1.08h0l.44 1.079h0l.414 1.08h0l.39 1.079h0l.365 1.08h0l.343 1.081h0l.326 1.079h0l.306 1.08h0l.29 1.08h0l.272 1.079h0l.259 1.08h0l.245 1.08h0l.231 1.079h0l.221 1.081h0l.209 1.079h0l.2 1.08h0l.128.72.064.36.191 1.08.19 1.079.188 1.081.181 1.079h0l.172 1.08h0l.16 1.08h0l.144 1.08h0l.126 1.08h0l.105 1.08h0l.08 1.08h0l.051 1.079h0l.022 1.08h0l-.014 1.08h0l-.052 1.08h0l-.093 1.079h0l-.139 1.08h0l-.191 1.08h0l-.241 1.067h0l-.004.013-.311 1.079h0l-.384 1.08h0l-.47 1.08h0l-.567 1.08h0l-.681 1.08h0l-.817 1.079h0c-.317.382-.649.743-.993 1.08h0a14.36 14.36 0 0 1-1.228 1.08h0a14.55 14.55 0 0 1-1.581 1.08h0c-.741.436-1.501.795-2.268 1.08h0c-.79.292-1.584.509-2.367.65h0l-2.303.43h0c-1.939.365-3.895.702-5.836.702h0a14.21 14.21 0 0 1-2.236-.167m-20.743-82.6l.255 1.08.258 1.079.261 1.081.264 1.08.266 1.079.27 1.08.274 1.08.277 1.079.283 1.081.285 1.079.29 1.08.294 1.08h0l.301 1.08h0l.303 1.08.311 1.08h0l.315 1.079.322 1.08h0l.327 1.08h0l.333 1.08h0l.341 1.08h0l.346 1.08h0l.354 1.079h0l.36 1.08h0l.367 1.08h0l.375 1.079h0v.001l.383 1.078h0l.392 1.08h0l.398 1.08h0l.409 1.08h0l.415 1.08h0l.16.408.255.672h0l.382 1.079h0l.352 1.08h0l.325 1.079h0l.303 1.08h0l.287 1.081h0l.272 1.079h0l.265 1.08h0l.26 1.08.258 1.079.259 1.08h0l.268 1.08h0l.277 1.079h0l.292 1.081h0l.311 1.079h0l.333 1.08h0l.362 1.08h0l.394 1.08h0l.207.526h0l.225.553h0l.456 1.081h0l.483 1.079h0l.502 1.08h0l.525 1.08h0l.543 1.08h0l.561 1.08h0l.577 1.08h0l.591 1.08h0l.601 1.079h0l.613 1.08h0l.617 1.08.625 1.08.626 1.079.627 1.08.624 1.08.269.464c.106.186.245.409.403.616h0c.327.425.738.78 1.129.59h0a9.01 9.01 0 0 0 1.04-.59h0c.469-.309.916-.671 1.279-1.08h0c.295-.33.534-.691.687-1.08h0a2.56 2.56 0 0 0 .177-.748h0l.025-.332.064-1.079h0l.045-1.08h0l.021-1.08h0v-1.08h0l-.021-1.079h0l-.042-1.08h0l-.064-1.08h0l-.083-1.08h0l-.105-1.08h0l-.125-1.08h0l-.146-1.08h0l-.164-1.079h0l-.187-1.081h0l-.207-1.079h0l-.225-1.08h0l-.248-1.08h0l-.05-.211-.215-.869h0l-.269-1.079h0l-.278-1.081h0l-.284-1.079h0l-.291-1.08h0l-.3-1.08h0l-.308-1.079h0l-.314-1.08h0l-.321-1.08h0l-.334-1.079h0l-.341-1.081h0l-.35-1.08h0l-.36-1.079h0l-.372-1.08h0l-.382-1.079h0l-.394-1.08h0l-.406-1.08h0l-.418-1.08h0l-.431-1.08h0l-.445-1.08h0l-.46-1.079h0l-.476-1.079h0l-.493-1.08h0l-.511-1.08h0l-.528-1.079h0l-.55-1.08h0l-.569-1.08h0l-.592-1.08h0l-.617-1.08h0l-.645-1.08h0l-.671-1.079h0l-.702-1.08h0l-.734-1.08h0l-.77-1.08h0l-.809-1.08h0l-.848-1.08h0l-.891-1.079h0l-.94-1.081h0l-.988-1.079h0l-1.035-1.08h0l-1.083-1.08h0l-1.121-1.079h0l-1.149-1.08h0l-1.158-1.081h0l-1.132-1.079h0l-1.073-1.08h0l-.481-.514h0zm59.156-10.797l-1.16.51h0c-.379.158-.739.356-1.09.57h0l-1.676 1.078h0l-.063.04.377 1.04h0l.386 1.08h0l.38 1.081.375 1.08.372 1.08.371 1.079.368 1.079.37 1.08.37 1.08.374 1.079.376 1.081.381 1.08.385 1.079h0l.394 1.08h0l.401 1.08h0l.411 1.079h0l.421 1.081h0l.434 1.079h0l.446 1.08h0l.461 1.08h0l.281.64h0l.198.44.504 1.08h0l.529 1.08h0l.554 1.079h0l.575 1.08h0l.595 1.08h0l.612 1.08h0l.63 1.08h0l.64 1.08h0l.652 1.079h0l.658 1.08h0l.662 1.08.664 1.079v.001l.661 1.077.001.001.698 1.08h0c.321.44.688.835 1.137 1.08h0a2.39 2.39 0 0 0 .286.131h0c1.013.375 2.329.435 3.254-.131h0l.165-.11h0c.372-.273.717-.603 1.025-.97h0c.28-.331.529-.696.74-1.08h0c.191-.346.35-.708.475-1.078h0v-.001a5.66 5.66 0 0 0 .235-.972h0l.016-.107.128-1.08h0l.073-1.08h0l.023-1.079h0l-.025-1.08h0l-.073-1.08h0l-.119-1.08h0l-.164-1.08h0l-.208-1.08h0l-.122-.543h0l-.129-.536-.271-1.08h0l-.286-1.08h0l-.302-1.08h0l-.32-1.08h0l-.335-1.08h0l-.354-1.079h0l-.372-1.081h0l-.39-1.079h0l-.409-1.08h0l-.429-1.08h0l-.45-1.079h0l-.469-1.08h0l-.493-1.081h0l-.296-.625h0l-.221-.454h0l-.559-1.08h0l-.609-1.08h0l-.659-1.079h0l-.72-1.079h0l-.785-1.08h0l-.86-1.08h0l-.949-1.081h0l-.886-.913h0l-.172-.167a12.6 12.6 0 0 0-1.32-1.08h0a14.78 14.78 0 0 0-1.78-1.078h0a18.83 18.83 0 0 0-2.55-1.08h0l-.662-.214h0a1.8 1.8 0 0 0-.532-.078h0c-.415 0-.838.126-1.255.292m-212.652-24.836c-.453.041-.893.211-1.186.495h0c-.187.181-.36.377-.518.585h0c-.254.334-.473.698-.664 1.08h0c-.172.346-.321.71-.452 1.08h0l-.329 1.081h0l-.151.621h0l-.1.457h0l-.184 1.08h0l-.115 1.08h0l-.037 1.08h0l.048 1.08h0l.147 1.08h0l.006.031.204 1.05h0l.224 1.077h0l.235 1.081h0l.248 1.08h0l.261 1.08h0l.273 1.08h0l.286 1.08h0l.299 1.08h0l.31 1.078h0l.324 1.08h0l.336 1.08h0l.35 1.08h0l.361 1.08h0l.376 1.08h0l.388 1.078h0l.401 1.08h0l.414 1.08h0l.427 1.081h0l.44 1.08h0l.454 1.08h0l.468 1.079h0l.479 1.079h0l.495 1.08h0l.509 1.08h0l.522 1.079h0l.536 1.081h0l.55 1.08h0l.565 1.079h0l.58 1.08h0l.593 1.08h0l.609 1.079h0l.624 1.081h0l.639 1.079h0l.654 1.08h0l.671 1.08h0l.686 1.08h0l.701 1.08h0l.301.456.408.624h0l.688 1.079h0l.681 1.08.689 1.08h0l.718 1.08h0l.763 1.08h0l.837 1.08h0l.948 1.079h0l1.126 1.08h0a12.84 12.84 0 0 0 1.437 1.08h0l.303.19h0c1.144.686 2.683.459 4.035-.19h0c.605-.29 1.172-.665 1.65-1.08h0l.438-.418h0c.19-.2.356-.424.502-.662h0c.201-.331.361-.696.483-1.079h0c.11-.348.19-.71.241-1.08h0c.05-.356.072-.719.072-1.08h0c0-.364-.024-.728-.069-1.08h0a8.31 8.31 0 0 0-.169-.922h0l-.04-.158-.278-1.08h0l-.298-1.079h0l-.316-1.08h0l-.331-1.08h0l-.348-1.08h0l-.363-1.08h0l-.376-1.08h0l-.387-1.079h0l-.398-1.081h0l-.405-1.079h0l-.412-1.08h0l-.418-1.08-.42-1.079-.424-1.08-.422-1.081-.421-1.079-.419-1.08-.414-1.08h0l-.406-1.079h0l-.399-1.079h0l-.39-1.08h0l-.062-.176-.419-.904-.494-1.081h0l-.488-1.08-.488-1.08-.485-1.078-.49-1.08-.49-1.08-.497-1.08h0l-.504-1.08h0l-.513-1.08h0l-.524-1.078h0l-.538-1.08h0l-.553-1.08h0l-.571-1.08h0l-.591-1.08h0l-.614-1.08h0l-.64-1.081h0l-.669-1.077h0l-.7-1.081h0l-.302-.449h0l-.435-.631h0l-.779-1.08h0l-.826-1.08h0l-.873-1.08h0l-.922-1.08h0l-.978-1.078h0l-1.037-1.081h0l-1.098-1.08h0l-1.17-1.08h0l-.807-.705h0c-.254-.219-.603-.339-.97-.375h0l-.213-.009h0l-.214.009m294.81 110.139l-1.198-1.08-1.2-1.08-.402-.363-.482-.717-.723-1.079-.723-1.08-.723-1.08-.724-1.08-.724-1.079-.723-1.08-.724-1.08-.113-.169-.645-.911-.762-1.079-.762-1.08-.761-1.08-.759-1.08-.761-1.08-.761-1.08-.76-1.08-.762-1.079-.763-1.081-.764-1.079-.767-1.08-.77-1.08-.771-1.08-.775-1.079-.446-.619-.345-.462h0l-.881-1.079h0l-.927-1.08h0l-.891-1.08h0l-.782-1.079h0c-.229-.348-.44-.706-.628-1.08h0l-.026-.051a3.28 3.28 0 0 1-.299-1.029h0c-.044-.363-.03-.736.053-1.079h0c.069-.293.189-.562.364-.787h0l.235-.294h0a14.65 14.65 0 0 1 .992-1.08h0c.389-.381.8-.741 1.228-1.079h0c.499-.392 1.02-.753 1.559-1.08h0c.496-.3 1.007-.571 1.527-.81h0c.808-.372 1.867.086 2.593.603h0l.279.207h0a11.69 11.69 0 0 1 1.191 1.08h0l.985 1.079h0l.945 1.08h0l.609.656h0l.414.425 1.071 1.079h0l1.091 1.08h0l1.103 1.08h0l1.11 1.079 1.111 1.08 1.107 1.08h0l1.094 1.079h0l1.075 1.081h0l1.052 1.079h0l1.024 1.08h0l.992 1.08h0l.954 1.08h0l.916 1.079h0l.505.618h0l.368.463h0l.821 1.079h0l.775 1.08h0l.735 1.08h0l.696 1.08h0l.666 1.08h0l.638 1.08h0l.612 1.08h0l.59 1.079h0l.57 1.08h0l.553 1.08h0l.537 1.08h0l.1.204a4.17 4.17 0 0 1 .31.875h0c.084.351.129.714.137 1.08h0c.008.362-.02.727-.079 1.08h0l-.132.585h0l-.164.495h0a7 7 0 0 1-.512 1.079h0c-.227.387-.489.751-.785 1.08h0c-.238.267-.499.51-.779.723h0c-.405.307-.938.238-1.473.169h0c-.301-.038-.603-.077-.884-.049h0l-1.932.237h0l-.545.126h0c-.857.234-1.67.618-2.497.954h0l-.332.131h0zm21.705-35.633l-1.281-.063h0c-2.226-.13-4.293-.504-6.267-1.018h0l-3.539-1.08h0l-2.956-1.079h0l-2.821-1.08h0l-2.975-1.079h0l-.565-.19h0l-.251-.89-.304-1.08-.303-1.08-.303-1.08-.303-1.08-.306-1.078-.001-.001-.308-1.079-.311-1.08-.315-1.08-.32-1.079h0l-.325-1.08-.331-1.08h0l-.336-1.08h0l-.346-1.08h0l-.353-1.08h0l-.362-1.079h0l-.37-1.08h0l-.381-1.08h0l-.392-1.08h0l-.12-.325-.351-.755-.503-1.08-.503-1.079-.503-1.081-.502-1.079-.502-1.08-.502-1.08-.503-1.079-.503-1.08-.502-1.081-.503-1.079-.502-1.08-.503-1.08-.502-1.079-.189-.408-.252-.671-.404-1.08-.404-1.08-.403-1.081-.404-1.08-.403-1.08-.404-1.078-.403-1.08-.404-1.08-.404-1.08-.404-1.08-.403-1.08-.404-1.078-.403-1.08-.404-1.08-.404-1.08-.404-1.08-.403-1.08-.403-1.081-.403-1.077-.404-1.081-.404-1.08-.404-1.08-.403-1.08-.25-.67-.023-.41-.058-1.08-.038-.682 1.153.682 1.822 1.08 1.506.892-.404-.892h0l-.459-1.08h0l-.425-1.078h0l-.386-1.081h0l-.345-1.08h0l-.304-1.08h0l-.254-1.08h0l-.2-1.078h0l-.144-1.08h0l-.079-1.08h0l-.007-1.08h0l.073-1.08h0l.165-1.081h0l.27-1.08h0a10.81 10.81 0 0 1 .391-1.078h0l.365-.767h0l.17-.313h0l.657-1.08h0l.789-1.08h0l.944-1.08h0l1.137-1.08h0c.441-.379.907-.74 1.396-1.08h0a18.34 18.34 0 0 1 1.77-1.08h0a18.86 18.86 0 0 1 2.427-1.078h0a21.32 21.32 0 0 1 3.417-.928h0l2.107.928h0l2.484 1.078h0l2.506 1.08h0l2.513 1.08 2.505 1.08h0l2.484 1.08h0l2.449 1.08h0l2.4 1.08h0l2.343 1.08h0l2.278 1.078h0l.686.333 1.472.747h0l1.83 1.081h0c.507.334.997.691 1.459 1.08h0a12.52 12.52 0 0 1 1.016.953h0l.119.127.991 1.08h0l.945 1.08h0l.905 1.078h0l.869 1.08h0l.841 1.08h0l.815 1.08h0l.794 1.081h0l.777 1.078h0l.761 1.08h0l.751 1.08h0l.739 1.08h0l.124.18.564.9h0l.559 1.08h0l.441 1.081h0l.333 1.077h0l.108.445h0l.129.636h0l.192 1.08h0l.158 1.08h0l.132 1.08h0l.112 1.08h0l.099 1.08h0l.092 1.078.092 1.08.098 1.08h0l.074.738h0l.039.342h0l.15 1.08h0l.175 1.08h0l.174 1.078h0l.149 1.08h0l.1 1.08h0l.023 1.081h0c-.007.359-.032.72-.077 1.08h0l-.026.181-.156.899h0l-.246 1.079h0l-.317 1.079h0l-.39 1.08h0l-.464 1.08h0l-.538 1.079h0l-.606 1.081h0l-.658 1.08h0l-.688 1.079h0l-.678 1.08h0l-.615 1.08h0l-.184.368h0c-.113.234-.209.47-.29.711h0a7.77 7.77 0 0 0-.271 1.081h0c-.062.354-.104.715-.132 1.079h0l-.044 1.08h0l-.001 1.08h0l.009 1.08h0l-.02 1.08h0l-.076 1.012h0l-.008.068-.144 1.079h0l-.165 1.08h0l-.172 1.08-.166 1.08h0l-.145 1.08h0l-.111 1.08h0l-.033.451h0l-.035.628h0l-.047 1.08h0l-.03 1.08h0l-.017 1.079h0v.001l-.008 1.078h0l-.004 1.08-.004 1.08-.006 1.08h0l-.013 1.08h0l-.025 1.08h0l-.04 1.079h0l-.006.155c-.014.278.013.597.042.925h0l.056 1.079h0c-.017.472-.128.874-.471 1.08h0a.76.76 0 0 1-.098.052h0c-1.517.668-3.169.944-4.847 1.029h0l-1.267.03h0c-.483 0-.966-.012-1.447-.03m-34.927-60.468a5.01 5.01 0 0 0 .283.571h0l.286.509.618 1.08h0l.634 1.08h0l.645 1.08h0l.659 1.08h0l.668 1.078h0l.676 1.08h0l.682 1.08.689 1.08.692 1.08.695 1.08.693 1.078.693 1.08.689 1.08.682 1.081.676 1.08h0l.116.181.529.899h0l.623 1.079h0l.612 1.079h0l.601 1.08h0l.596 1.08.594 1.079.595 1.081.599 1.08h0l.606 1.079h0l.616 1.08h0l.632 1.08h0l.651 1.079h0l.674 1.081h0l.7 1.079h0l.733 1.08h0l.771 1.08h0l.477.64h0c.317.416.994-.055 1.413-.64h0c.194-.271.334-.565.355-.808h0l.022-.272h0l.054-1.08h0l.005-1.079h0l-.032-1.081h0l-.063-1.079h0l-.083-1.08h0l-.094-1.08h0l-.096-1.079-.087-1.08h0l-.072-1.081h0l-.043-1.079h0l-.008-1.08h0l.026-.878h0l.011-.202.085-1.079h0l.129-1.079h0l.166-1.08h0l.199-1.08h0l.222-1.081h0l.243-1.08h0l.253-1.08h0l.224-.925.037-.153.291-1.08h0l.33-1.08h0l.358-1.08h0l.373-1.08h0l.375-1.08.365-1.078h0l.342-1.08h0l.307-1.08h0l.26-1.08h0l.204-1.08h0l.059-.389h0l.089-.691h0l.113-1.081h0l.069-1.077h0l.014-1.081h0l-.056-1.08h0l-.142-1.08h0c-.065-.366-.148-.727-.251-1.08h0a8.94 8.94 0 0 0-.393-1.08h0l-.032-.072-.496-1.008h0l-.62-1.078h0l-.714-1.081h0l-.815-1.08h0l-.923-1.08h0l-1.035-1.08h0l-1.163-1.078h0l-1.307-1.08h0c-.937-.731-2.12-.936-3.329-1.08h0l-2.447-.369h0l-.494.369-1.448 1.08-1.448 1.08-1.447 1.078-.822.615-.118.465-.27 1.08-.271 1.08-.27 1.081-.25.999.033.079.444 1.08.444 1.08.444 1.08.444 1.08.445 1.08.446 1.081.449 1.077.388.928.06.153c.121.31.24.681.348 1.08h0l.243 1.08h0c.068.371.116.74.138 1.08h0c.026.419.011.794-.064 1.08h0c-.116.445-.375.666-.843.472h0l-1.099-.472h0l-2.206-1.08h0l-1.988-1.08h0l-1.93-1.08h0l-2.016-1.08h0l-.547-.274h0c-.35-.172-.611-.269-.773-.269h0c-.21 0-.251.165-.099.543"/></clipPath><clipPath id="F"><path d="M0 792h612V0H0z" transform="translate(-254.452 -314.877)"/></clipPath><clipPath id="G"><path d="M0 792h612V0H0z" transform="translate(-270.161 -314.178)"/></clipPath><clipPath id="H"><path d="M0 792h612V0H0z" transform="translate(-276.256 -314.178)"/></clipPath><clipPath id="I"><path d="M0 792h612V0H0z" transform="translate(-297.441 -317.811)"/></clipPath><clipPath id="J"><path d="M0 792h612V0H0z" transform="translate(-311.361 -324.924)"/></clipPath><clipPath id="K"><path d="M0 792h612V0H0z" transform="translate(-325.862 -314.178)"/></clipPath><clipPath id="L"><path d="M0 792h612V0H0z" transform="translate(-335.561 -322.879)"/></clipPath><clipPath id="M"><path d="M0 792h612V0H0z" transform="translate(-344.532 -314.951)"/></clipPath><clipPath id="N"><path d="M0 792h612V0H0z" transform="translate(-355.707 -321.17)"/></clipPath></defs><g fill="#fff" transform="translate(-172.347 -320)"><g fill-rule="evenodd"><path d="M0 0l8.188-9.305c.165-.185.332-.291.5-.312s.39.033.662.158l.254-.289-3.88-3.332-.254.289c.167.25.248.455.251.625s-.081.346-.245.533l-8.189 9.305-3.858-3.315c-.184-.156-.289-.316-.312-.482s.029-.379.155-.646l-.292-.252-2.792 3.173.292.25c.259-.164.475-.248.645-.248s.34.071.523.229l10.42 8.945c.191.164.295.33.319.494s-.034.387-.166.66l.292.252 2.793-3.173-.293-.25c-.251.16-.461.244-.628.242s-.347-.084-.536-.246zm-11.756-7.785l.614-4.246-.388-.035-.101.164c-.155.218-.517.326-1.078.316-1.745-.006-3.407-.555-4.988-1.648-.698-.483-1.253-.991-1.668-1.532-.296-.398-.471-.812-.526-1.236s.024-.793.242-1.1c.354-.5.901-.627 1.641-.388.381.129 1.13.498 2.245 1.115l1.662.918c.99.539 1.829.922 2.519 1.146s1.364.338 2.019.334c.673-.007 1.325-.181 1.956-.525s1.153-.805 1.571-1.394c.666-.94.949-1.985.853-3.131-.08-1.049-.593-2.135-1.533-3.262-.7-.84-1.546-1.604-2.541-2.291-1.783-1.234-3.844-2.029-6.183-2.387-.488-.084-.766-.152-.84-.203-.084-.059-.17-.223-.254-.494l-.391-.051-.855 4.277.383.061.089-.125c.208-.293.541-.465.999-.516.695-.08 1.587.051 2.678.397s2.034.797 2.836 1.351c.878.606 1.522 1.272 1.931 1.991.228.402.35.802.359 1.216.015.413-.083.762-.291 1.055-.313.444-.775.59-1.392.447-.425-.101-1.188-.451-2.289-1.046l-1.63-.897-2.375-1.199c-.491-.195-1.018-.338-1.588-.418a4.01 4.01 0 0 0-2.343.34c-.683.312-1.268.81-1.752 1.494-.798 1.125-1.065 2.324-.802 3.603.338 1.68 1.536 3.227 3.594 4.651.859.594 1.727 1.064 2.592 1.404.866.346 2.019.668 3.461.981.488.113.774.197.862.257.139.096.242.284.322.561zm-22.849-22.947l2.118-3.936 9.347 4.91c.215.113.352.248.412.404.059.161.055.385-.008.674l.342.18 2-3.717-.341-.179c-.209.216-.394.341-.561.382s-.355.002-.569-.109l-13.205-6.936-.182.338c.22.207.346.389.388.553s0 .355-.118.574l-6.539 12.145c-.118.219-.257.357-.416.418s-.383.054-.68-.008l-.182.338 12.95 6.801c.215.111.351.248.41.408s.052.387-.009.676l.342.179 1.997-3.711-.341-.179c-.206.209-.388.33-.555.371s-.355.002-.57-.112l-9.094-4.775 1.834-3.406 5.899 3.097c.215.114.351.248.412.407s.054.382-.008.672l.342.179 1.956-3.635-.342-.177c-.206.209-.39.334-.557.375s-.359.01-.574-.104zm-22.764-7.452l5.107 2.141 1.571.738c.294.172.537.385.735.631.436.535.485 1.194.147 1.979s-.848 1.203-1.542 1.265a2.66 2.66 0 0 1-.969-.074c-.317-.084-.86-.289-1.628-.611l-5.109-2.143zm1.059-2.466l2.135-4.967c.095-.221.22-.367.382-.44.159-.08.379-.093.67-.05l.15-.352-4.731-1.984-.151.351c.236.188.377.358.434.518s.032.349-.062.57L-62.93-34.33c-.097.228-.224.377-.377.451s-.378.088-.678.051l-.152.351 9.481 3.975c1.155.484 2.101.803 2.832.953s1.424.174 2.069.055a3.91 3.91 0 0 0 1.976-.996 5.5 5.5 0 0 0 1.276-1.846c1.051-2.443.293-4.447-2.275-6.016l4.719-2.896c.828-.51 1.41-.815 1.739-.924.331-.103.673-.098 1.031.026l.151-.352-5.483-2.299-.151.352c.353.218.486.429.399.631-.058.134-.369.38-.933.736l-4.965 3.121zm-29.06-7.432l1.015-4.342 10.316 2.352c.237.054.404.15.504.287s.153.355.168.652l.377.086.959-4.101-.377-.086c-.147.263-.291.429-.442.513-.149.078-.342.092-.579.039L-88-56.004l-.088.371c.267.145.436.287.52.436s.092.342.036.584l-3.132 13.402c-.058.242-.156.412-.293.51s-.356.152-.66.166l-.087.373 14.292 3.258c.236.054.403.15.502.291s.152.359.168.656l.377.086.958-4.098-.377-.086c-.145.256-.289.418-.439.502-.149.078-.342.092-.58.039l-10.035-2.289.879-3.76 6.51 1.485c.236.055.404.15.504.287s.152.355.168.65l.377.086.937-4.008-.377-.085c-.144.253-.289.421-.439.503s-.345.102-.581.047zm-14.201-2.529l-9.372-1.467.928-5.787c.037-.237.124-.408.262-.52s.346-.179.638-.209l.06-.377-5.078-.795-.06.379c.276.125.455.256.548.399s.119.332.081.568l-2.183 13.609c-.037.237-.124.409-.253.516s-.346.178-.647.213l-.06.377 5.078.795.06-.379c-.273-.115-.456-.244-.549-.395-.089-.144-.117-.334-.079-.572l.83-5.176 9.371 1.467-.829 5.176c-.038.236-.125.408-.255.519-.135.116-.346.182-.647.209l-.059.377 5.077.795.062-.379c-.272-.125-.456-.255-.549-.398s-.118-.332-.08-.568l2.182-13.61c.038-.236.123-.408.254-.515s.349-.176.647-.211l.06-.379-5.078-.795-.06.379c.268.115.448.242.541.392s.125.336.086.575zm-24.741 4.05l.436-12.32c.009-.248.073-.433.188-.555s.326-.216.616-.287l.013-.382-5.137-.178-.014.383c.289.089.482.199.594.328.106.131.157.32.148.568l-.435 12.32-5.11-.177c-.243-.008-.426-.067-.55-.182-.124-.109-.219-.312-.291-.6l-.387-.013-.149 4.201.388.014c.096-.289.21-.489.341-.594s.311-.156.554-.149l13.798.477c.251.01.438.072.562.187s.219.321.291.616l.387.013.148-4.203-.387-.011c-.091.281-.202.476-.333.578s-.323.15-.574.142zm-35.096-9.908l10.058-1.045c.25-.025.445.012.583.108s.263.287.374.562l.386-.041-.446-4.183-.384.039c-.052.295-.133.5-.248.627s-.298.199-.548.224l-14.402 1.494.04.381c.299.051.507.131.635.244s.2.295.227.541l1.455 13.68c.027.246-.01.44-.108.576s-.287.258-.569.369l.041.381 5.113-.531-.041-.381c-.294-.043-.505-.119-.634-.24s-.201-.299-.228-.545zm-19.786 2.883l9.928-1.906c.247-.049.444-.028.59.056s.287.264.423.528l.38-.074-.813-4.131-.38.074c-.025.299-.089.51-.192.644s-.279.225-.525.272l-14.216 2.728.074.375c.303.026.516.088.654.19s.226.275.274.519l2.657 13.502c.048.245.027.438-.057.584-.089.145-.264.282-.535.416l.074.375 5.047-.968-.073-.375c-.297-.018-.514-.075-.654-.186-.134-.107-.227-.279-.275-.523zm-18.894 8.861l-1.244-4.283 10.178-2.883c.233-.066.427-.062.58.01s.309.236.468.488l.372-.105-1.175-4.045-.371.105c.001.299-.044.516-.135.661-.091.138-.254.244-.487.31l-14.376 4.072.107.368c.303-.002.522.043.667.132s.25.254.319.493l3.839 13.222c.069.239.066.434-.006.586s-.237.303-.495.461l.106.367 14.099-3.992c.234-.066.428-.062.582.012s.31.242.469.494l.371-.105-1.173-4.041-.371.105c-.001.291-.047.504-.138.647s-.254.246-.488.312l-9.9 2.805-1.077-3.709 6.423-1.821c.233-.064.427-.06.58.01s.309.238.468.488l.372-.105-1.149-3.955-.371.105c-.001.293-.046.508-.137.653s-.252.254-.486.32zm-5.942 9.881l-3.17-2.931-.251.293.078.173c.093.254-.026.608-.356 1.055-1.006 1.408-2.414 2.44-4.228 3.092-.801.287-1.54.445-2.227.471-.499.011-.942-.086-1.327-.286s-.643-.472-.773-.824c-.211-.574-.003-1.09.62-1.551.326-.234 1.061-.628 2.212-1.177l1.714-.819c1.015-.49 1.814-.951 2.396-1.381s1.062-.91 1.435-1.441c.381-.549.61-1.176.686-1.883s-.006-1.394-.255-2.072c-.397-1.076-1.101-1.904-2.108-2.486-.916-.537-2.109-.744-3.583-.629-1.099.084-2.217.33-3.359.74-2.046.736-3.886 1.947-5.525 3.635-.35.345-.566.531-.651.562-.096.035-.281.01-.554-.078l-.267.287 3.056 3.147.271-.276-.054-.144c-.123-.336-.075-.705.146-1.104.332-.609.952-1.256 1.866-1.939.909-.682 1.826-1.19 2.747-1.52 1.007-.361 1.927-.502 2.758-.42.464.045.867.176 1.215.407.35.224.584.504.708.839.187.508.045.967-.428 1.383-.328.287-1.054.703-2.18 1.252l-1.679.807-2.358 1.232a6.88 6.88 0 0 0-1.257 1.045 3.9 3.9 0 0 0-1.061 2.09c-.134.732-.056 1.492.233 2.275.476 1.291 1.317 2.196 2.53 2.717 1.586.688 3.557.608 5.917-.242.987-.353 1.874-.785 2.652-1.291.784-.502 1.712-1.25 2.798-2.238.373-.33.608-.514.709-.549.159-.057.373-.035.649.06zm-46.587 7.703l3.903-2.226c1.248-.711 2.281-1.074 3.106-1.094 1.766-.045 3.257.979 4.48 3.068.885 1.516 1.198 2.881.944 4.096-.141.678-.439 1.276-.9 1.787-.463.518-1.163 1.043-2.111 1.584l-3.904 2.227zm-3.835.539l6.963 11.913c.126.214.171.406.138.57s-.155.351-.367.564l.193.332 7.946-4.531c1.744-.994 2.965-1.953 3.667-2.875 1.004-1.334 1.439-2.84 1.313-4.519-.093-1.323-.544-2.67-1.353-4.055-1.418-2.426-3.256-3.848-5.511-4.256-.945-.18-1.91-.137-2.897.117s-2.134.756-3.45 1.506l-7.946 4.531.193.332c.294-.074.517-.084.681-.031s.304.188.43.402m-11.564 20.557l-6.161-7.789c-.154-.195-.225-.379-.216-.545s.107-.373.284-.611l-.238-.301-3.815 2.943.238.301c.281-.113.5-.154.67-.125s.328.145.483.34l8.581 10.85c.149.187.218.367.209.535s-.104.369-.285.611l.239.301 4.412-3.404-.239-.301c-.325.142-.576.103-.75-.117-.12-.151-.162-.383-.127-.704l1.341-12.871 6.015 7.604c.149.189.218.367.209.535s-.105.369-.285.611l.239.301 3.815-2.943-.239-.303c-.277.111-.5.154-.669.125s-.325-.141-.475-.33l-8.582-10.848c-.154-.195-.225-.379-.217-.545s.108-.373.285-.611l-.238-.301-4.088 3.155.239.3c.311-.148.55-.115.718.096.099.125.116.463.053 1.018zM-280.875.436l2.363 5.923-6.104-2.097zm-.905-2.282l-5.199 5.317-2.436-.803c-.34-.109-.572-.23-.706-.357-.254-.243-.246-.602.034-1.081l-.279-.265-3.786 3.871.279.266c.27-.182.522-.282.754-.291s.593.066 1.079.236l13.303 4.375c.425.139.721.293.896.459.267.254.296.599.085 1.043l.279.265 4.055-4.148-.279-.266c-.426.245-.764.25-1.007.018-.165-.158-.303-.397-.411-.709l-4.768-13.162c-.205-.557-.306-.975-.308-1.254s.092-.557.279-.842l-.278-.265-4.203 4.298.278.266c.431-.316.795-.332 1.091-.049.121.115.244.34.367.684z" transform="matrix(1.333333 0 0 -1.333333 592.694 657.18747)" clip-path="url(#A)"/><path d="M0 0l-7.199-6.866c-.18-.172-.277-.343-.291-.51s.054-.383.195-.645l-.278-.265-3.364 3.439.28.266c.261-.151.472-.221.644-.215s.346.097.526.27L.54 5.037c.175.167.268.335.282.502s-.051.38-.195.644l.278.265 3.89-3.977-.279-.265c-.303.186-.556.182-.76-.013-.139-.133-.213-.356-.225-.678l-.484-12.931 7.026 6.702c.175.167.269.335.282.501s-.05.38-.195.645l.279.265 3.363-3.439-.279-.265c-.258.148-.473.22-.645.215s-.342-.095-.517-.262L2.335-16.618c-.181-.172-.277-.342-.292-.509s.055-.383.195-.644l-.277-.266-3.604 3.685.279.266c.288-.189.529-.19.724-.004.116.11.18.443.196 1zm-13.53 6.063l1.507 6.189-5.75-2.916zm-.575-2.385l-5.897 4.551-2.3-1.131c-.32-.154-.534-.305-.648-.449-.217-.275-.159-.63.185-1.066l-.238-.301-4.294 3.313.238.301c.293-.143.556-.207.788-.185s.578.148 1.035.384l12.557 6.16c.401.197.673.389.823.578.227.288.209.633-.063 1.043l.239.302 4.599-3.55-.238-.301c-.456.182-.791.141-.999-.121-.142-.18-.245-.435-.308-.759l-2.867-13.689c-.125-.58-.165-1.008-.128-1.284s.17-.539.394-.795l-.237-.302-4.768 3.681.238.3c.472-.255.834-.22 1.087.1.104.131.194.372.267.728zm-12.656 11.318l.123-4.079-.381-.019c-.08.294-.183.478-.305.553s-.571.127-1.341.152c-1.594.058-2.864.214-3.814.479s-1.972.732-3.079 1.416c-2.199 1.357-3.682 2.987-4.441 4.889a7.59 7.59 0 0 0-.552 3.447c.09 1.354.526 2.648 1.3 3.873 1.056 1.669 2.47 2.814 4.236 3.435 2.66.934 5.491.476 8.496-1.379 1.108-.683 1.981-1.381 2.627-2.101s1.348-1.776 2.109-3.181c.366-.666.612-1.035.735-1.11s.333-.086.637-.029l.15-.346-3.766-1.679-.161.353c.083.099.146.184.194.259.122.194.156.431.092.706s-.235.672-.519 1.183c-.778 1.416-1.843 2.542-3.193 3.376-1.596.985-3.115 1.375-4.565 1.172-1.699-.231-3.021-1.093-3.962-2.579s-1.145-3.038-.61-4.648c.45-1.376 1.473-2.553 3.067-3.537 1.352-.834 2.843-1.285 4.473-1.356.589-.028 1.023-.009 1.304.058s.479.198.603.394a2.43 2.43 0 0 1 .146.276zm-31.904 19.389l-1.907-4.038 9.595-4.419c.221-.102.413-.128.576-.081s.342.187.539.41l.35-.161-1.801-3.814-.349.161c.049.297.038.516-.028.672s-.213.282-.433.384l-13.554 6.242.164.347c.299-.048.522-.039.68.027s.287.214.394.438l5.885 12.467c.106.224.134.418.087.579s-.186.337-.417.532l.164.347 13.293-6.123c.22-.101.412-.127.576-.077s.345.191.541.415l.352-.162-1.8-3.81-.35.162c.045.288.034.504-.033.661s-.213.282-.432.383l-9.335 4.299-1.651-3.497 6.055-2.789c.221-.101.412-.127.575-.081s.343.188.539.412l.351-.162-1.761-3.729-.35.162c.046.288.036.508-.032.664s-.208.289-.428.391zm-17.398 11.143l-6.515-7.78c-.353-.387-.553-.639-.594-.763-.112-.344.092-.684.609-1.007l-.121-.364-5.038 1.617.12.364c.545-.068.884.109 1.02.523.037.112.042.482.012 1.112l-.731 12.846c-.037.636-.111 1.083-.224 1.342s-.333.475-.656.655l.12.364 5.434-1.745-.119-.363c-.517.05-.829-.098-.941-.438-.057-.174-.08-.44-.061-.806l.408-9.177 6.055 7.155c.261.305.413.517.449.629.115.349-.069.656-.547.915l.119.364 5.69-1.825-.12-.364c-.566.032-.906-.133-1.021-.485-.041-.124-.052-.368-.028-.743l.495-9.205 5.728 7.058c.292.346.472.618.537.815.109.333-.096.642-.61.923l.119.363 5.38-1.726-.12-.363c-.418.018-.724-.033-.925-.153s-.516-.441-.951-.96l-8.235-9.969c-.395-.475-.619-.801-.679-.983-.122-.371.072-.69.587-.954l-.12-.363-5.105 1.638.12.364c.563-.091.913.079 1.051.5.048.144.041.521-.016 1.134zm-33.75-.466l9.928-1.906c.247-.048.444-.028.591.056s.286.264.422.527l.381-.072-.814-4.131-.38.072c-.025.3-.088.51-.191.646s-.279.224-.526.271l-14.215 2.729.073.375c.303.025.517.088.654.19s.226.275.274.519l2.657 13.502c.048.243.027.438-.057.582s-.263.283-.534.418l.073.375 5.047-.969-.073-.375c-.298-.017-.515-.075-.653-.185s-.228-.28-.276-.523zm-17.844 2.623l10.039-1.218c.249-.03.443.003.584.097s.267.283.385.555l.383-.046-.519-4.177-.384.047c-.046.296-.124.502-.237.631s-.294.203-.543.234l-14.374 1.743.048.379c.299.046.508.123.638.234s.206.29.237.537l1.697 13.652c.03.247-.003.439-.099.577s-.282.264-.562.38l.048.379 5.102-.619-.047-.38c-.295-.037-.507-.109-.638-.229s-.206-.294-.238-.541zm-12.654 4.74l-2.36 5.924-3.017-5.646zm.915-2.279l-7.474.387-1.228-2.228c-.173-.309-.259-.553-.27-.736-.018-.349.236-.607.771-.769l-.019-.381-5.444.282.021.381c.324.049.576.146.754.295s.387.448.625.9l6.709 12.161c.214.388.325.699.338.938.019.366-.198.638-.658.82l.021.382 5.829-.301-.02-.382c-.48-.11-.731-.333-.748-.666-.013-.228.051-.496.188-.795l5.602-12.838c.234-.546.449-.92.64-1.125s.451-.345.785-.428l-.02-.381-6.043.313.02.381c.536.058.811.292.832.699.01.166-.055.413-.203.747zm-34.354 9.008l1.088-12.281c.022-.247.096-.429.218-.544s.335-.2.63-.257l.033-.38-5.121-.443-.035.381c.285.106.472.224.576.36s.141.326.119.573l-1.088 12.282-5.093-.44c-.242-.021-.422-.091-.539-.211s-.204-.323-.26-.614l-.385-.033-.372 4.188.386.034c.112-.285.236-.478.373-.577s.318-.139.56-.119l13.755 1.189c.25.022.433.094.551.215s.201.332.258.63l.386.034.37-4.188-.385-.033c-.107.276-.228.465-.364.559-.137.099-.33.135-.58.114zm-21.886-2.565c-1.549-.243-2.766-.898-3.652-1.971-1.052-1.264-1.436-2.769-1.157-4.508s1.115-3.053 2.51-3.934c1.18-.75 2.549-1 4.11-.756s2.786.9 3.664 1.972c.524.634.889 1.371 1.088 2.208a5.71 5.71 0 0 1 .081 2.228c-.292 1.819-1.132 3.157-2.523 4.006-1.184.732-2.558.982-4.121.755m-.448 2.717c2.834.443 5.198.039 7.104-1.215 2.007-1.312 3.213-3.219 3.615-5.729.247-1.538.059-3.041-.57-4.502-1.229-2.864-3.715-4.587-7.46-5.172-2.813-.44-5.167-.035-7.072 1.219-1.016.668-1.847 1.535-2.491 2.591-.563.933-.934 1.949-1.109 3.045a8.22 8.22 0 0 0 .545 4.605c1.185 2.8 3.664 4.518 7.438 5.158m-23.366-7.94c-1.508-.427-2.634-1.223-3.382-2.395-.888-1.381-1.083-2.921-.592-4.614s1.484-2.895 2.977-3.602c1.263-.602 2.653-.686 4.173-.256s2.653 1.23 3.393 2.399a5.34 5.34 0 0 1 .808 2.323 5.73 5.73 0 0 1-.196 2.22c-.513 1.77-1.512 2.997-2.997 3.673-1.266.584-2.66.667-4.184.252m-.78 2.644c2.758.781 5.155.664 7.201-.351 2.154-1.06 3.587-2.808 4.295-5.251a7.97 7.97 0 0 0-.01-4.537c-.866-2.99-3.122-5-6.766-6.032-2.739-.776-5.124-.656-7.171.359-1.09.542-2.022 1.301-2.792 2.272-.673.858-1.167 1.822-1.477 2.889-.453 1.563-.461 3.109-.027 4.637.831 2.921 3.08 4.924 6.747 6.014m-14.491-14.481l-8.917-3.205 2.029-5.506c.083-.225.2-.378.358-.46s.374-.112.666-.085l.132-.358-4.83-1.738-.133.359c.247.176.397.338.461.495s.052.347-.031.573l-4.771 12.948c-.083.225-.201.378-.349.459s-.373.108-.676.086l-.133.36 4.832 1.736.133-.359c-.245-.166-.402-.326-.463-.491-.06-.16-.05-.351.033-.577l1.814-4.925 8.917 3.206-1.814 4.925c-.084.225-.202.378-.351.462-.155.088-.374.112-.674.083l-.133.359 4.832 1.736.132-.359c-.242-.173-.397-.337-.462-.494s-.051-.348.032-.573l4.771-12.949c.083-.225.201-.378.349-.458s.377-.107.675-.087l.133-.359-4.831-1.736-.133.359c.242.164.394.323.456.488s.058.354-.026.579zm-19.395.653l.009-4.289-.389.018-.076.175c-.123.24-.467.395-1.024.462-1.728.235-3.451-.08-5.171-.946-.76-.382-1.38-.809-1.868-1.287-.349-.353-.58-.739-.695-1.152s-.087-.788.084-1.122c.281-.543.805-.745 1.572-.61.395.076 1.189.338 2.38.797l1.775.678c1.056.399 1.94.662 2.656.789s1.398.147 2.047.054c.665-.099 1.285-.361 1.861-.788a4.55 4.55 0 0 0 1.36-1.598 4.58 4.58 0 0 0 .404-3.218c-.227-1.028-.888-2.031-1.978-3.018-.811-.736-1.756-1.377-2.839-1.921-1.94-.977-4.092-1.48-6.459-1.512-.495-.016-.78-.046-.861-.087-.092-.045-.199-.196-.32-.453l-.394.002-.246 4.354.389.008.07-.138c.165-.318.471-.534.917-.648.677-.174 1.579-.168 2.708.026s2.126.509 2.999.949c.954.48 1.685 1.048 2.192 1.705.283.366.46.748.527 1.155.073.407.026.766-.139 1.084-.248.482-.685.692-1.315.635-.436-.042-1.241-.283-2.414-.723l-1.742-.662-2.521-.862a6.91 6.91 0 0 0-1.632-.196 4.01 4.01 0 0 0-2.271.659c-.633.403-1.142.977-1.525 1.72-.631 1.225-.727 2.449-.286 3.68.572 1.616 1.977 2.985 4.214 4.11a12.92 12.92 0 0 0 2.764 1.036c.907.223 2.095.383 3.567.494.498.046.794.089.89.137.15.076.279.246.397.51zm-28.467-25.302l2.588-3.65 8.673 5.998c.198.137.318.289.358.451s.007.387-.091.667l.317.219 2.444-3.447-.317-.219c-.235.19-.432.291-.603.312s-.354-.041-.553-.178l-12.25-8.472-.222.313c.192.231.295.427.316.595s-.043.352-.187.555l-7.988 11.268c-.144.203-.299.324-.464.364s-.389.01-.675-.09l-.222.313 12.014 8.309c.199.138.318.29.357.455s.005.391-.094.67l.317.22 2.442-3.444-.317-.219c-.231.183-.426.281-.596.302s-.354-.041-.553-.178l-8.436-5.835 2.24-3.16 5.473 3.784c.199.138.318.289.359.451s.006.388-.091.667l.317.219 2.389-3.37-.317-.219c-.23.183-.428.284-.598.305s-.358-.034-.557-.171zm-19.125-9.889l3.896-9.335c.181-.489.312-.781.404-.875.255-.26.654-.241 1.186.057l.268-.275-3.811-3.635-.268.275c.316.443.317.823.012 1.136-.084.085-.413.263-.99.532l-11.826 5.394c-.586.266-1.02.411-1.306.433s-.58-.067-.893-.263l-.268.275 4.11 3.92.269-.275c-.287-.426-.302-.768-.05-1.026.128-.131.356-.276.691-.432l8.396-3.952-3.553 8.639c-.151.372-.269.603-.352.688-.258.264-.619.247-1.075-.047l-.269.275 4.303 4.104.268-.275c-.293-.478-.306-.852-.046-1.119.091-.092.305-.218.652-.373l8.461-3.89-3.62 8.31c-.173.417-.332.701-.477.85-.246.252-.62.218-1.111-.099l-.269.275 4.068 3.882.269-.275c-.213-.357-.311-.648-.298-.878s.152-.658.412-1.282l5.045-11.861c.24-.568.426-.916.561-1.054.274-.281.65-.261 1.127.064l.269-.275-3.861-3.683-.269.275c.345.449.358.834.047 1.153-.106.108-.447.28-1.022.517z" transform="matrix(1.333333 0 0 -1.333333 615.28773 404.18813)" clip-path="url(#B)"/><path d="M0 0v-2.006h1.092c.552 0 .93.09 1.138.266s.31.435.31.773a.98.98 0 0 1-.188.588c-.124.172-.262.275-.414.316S1.491 0 1.052 0zm0-3.457V-6.74h-2.097v8.25h3.622c1.076 0 1.871-.229 2.383-.686s.77-1.062.77-1.812c0-.987-.478-1.696-1.429-2.125L4.806-6.74H2.489l-1.3 3.283zm6.852.836a5.82 5.82 0 0 1-1.641 4.15C4.12 2.686 2.799 3.262 1.25 3.262c-1.569 0-2.907-.574-4.016-1.723a5.75 5.75 0 0 1-1.664-4.15c.001-1.619.555-3.004 1.667-4.157 1.113-1.148 2.44-1.726 3.982-1.726s2.867.574 3.972 1.723 1.661 2.531 1.661 4.15M1.22-9.711a6.57 6.57 0 0 0-4.917 2.094C-5.048-6.221-5.72-4.553-5.72-2.621a6.93 6.93 0 0 0 2.027 4.996c1.353 1.396 2.99 2.098 4.912 2.098 1.943 0 3.583-.709 4.921-2.118a7 7 0 0 0 2.002-4.976c0-1.895-.665-3.549-1.999-4.965S3.169-9.711 1.22-9.711" transform="matrix(1.333333 0 0 -1.333333 623.1472 632.54427)" clip-path="url(#C)"/><path clip-path="url(#D)" d="M0 217.553c-78.095 0-143.512-40.084-160.768-93.929l.224.318.605.822.618.804.631.79.645.771.658.753.668.735.68.715.691.697.7.675.712.655.719.634.731.612.738.589.746.567.754.542.762.519.768.494.776.466.781.442.788.412.794.385.8.356.804.328.81.296.813.264.816.231.788.189.268.059.233.053.236.056.24.056.239.057.24.059.243.06.494.123.495.125.252.063.255.063.256.063.256.063.261.063.262.061.264.06.264.06.268.06.27.057.272.057.271.054.278.053.28.05.278.048.283.045.286.042.287.041.287.037.292.032.286.031.192.018.183.019.189.018.192.019.196.019.201.019.205.019.209.019.215.018.218.016.218.013.226.013.227.01.231.009.236.003.24.003.245-.004.246-.009.249-.012.252-.016.256-.025.261-.029.262-.037.267-.045.271-.053.268-.063.272-.07.274-.081.278-.094.275-.103.277-.116.272-.125.331-.167.316-.174.309-.18.297-.186.289-.192.281-.199.271-.199.11-.085c11.635 15.941 29.496 29.321 51.401 38.553l.157.365.271.494.346.483.412.447.463.394.456.303.322.186.267.142.262.133.258.123.253.116.248.108.24.1.233.098.229.089.22.086.212.083.205.081.196.079.188.075.179.073.18.079.18.076.185.082.186.082.192.085.189.083.19.085.193.085.196.086.198.088.199.086.198.086.204.086.205.086.204.085.208.086.209.085.458.182.457.18.458.174.461.171.464.168.466.163.467.157.472.152.473.145.475.139.479.13.479.125.485.116.486.105.488.098.492.088.498.075.498.065.501.053.502.04.508.025.508.012.511-.003.516-.019.517-.035.517-.053.519-.07.521-.088.316-.066c15.005 3.91 31.246 6.063 48.215 6.063 49.683-.001 93.207-18.334 117.322-45.786l.069.092.164.214.163.209.164.202.163.201.163.196.161.19.16.189.16.186.154.179.154.18.152.176.148.173.146.17.144.168.138.164.138.164.132.161.127.16.125.157.12.155.116.154.119.161.362.504.372.517.371.514.368.516.369.517.369.517.368.517.368.519.369.519.368.517.366.519.369.52.702.993.398.565.368.52.64.907.46.655.366.521.366.521.734 1.043.368.521.369.521.366.521.368.521.369.523.366.52.369.523.371.521.344.489.157.231.176.264.176.262.177.265.177.262.176.265.152.226C103.473 197.759 54.869 217.553 0 217.553zm147.149-66.601l-.229-.275-.447-.523-.45-.517-.453-.513-.457-.507-.46-.502-.461-.497-.464-.492-.467-.489-.469-.485-.47-.482-.472-.478-.473-.475-.473-.47-.473-.469-.475-.466-.473-.464-.476-.463-.472-.46-.473-.458-.472-.458-.469-.456-.469-.456-.466-.456-.466-.454-.463-.456-.458-.456-.457-.456-.454-.456-.45-.457-.439-.45-.215-.227-.212-.23-.22-.243-.224-.255-.23-.265-.239-.277-.249-.283-.258-.29-.27-.297-.283-.302-.296-.303-.311-.305-.328-.306-.349-.303-.366-.297-.381-.283-.233-.16-.237-.151-.25-.148-.262-.141-.275-.135-.057-.025c3.402-5.813 5.995-11.91 7.698-18.229l.104.226.223.475.164.356.189.513.229.63.224.63.221.63.217.631.214.631.212.631.208.633.205.633.202.634.201.634.198.633.198.637.192.636.192.637.192.636.188.639.188.639.186.639.186.64.183.64.183.642.182.64.182.643.182.643.182.643.18.646.18.645.182.645.18.647.183.647.63 2.234 2.099.703.548.19.552.195.551.202.555.205.555.209.558.211.563.217.565.217.568.218.574.22.577.22.584.218.59.217.596.215.602.212.609.208.391.129c-1.97 3.693-4.173 7.296-6.602 10.803zm-280.799-33.664l-.185-.291-.23-.363-.231-.368-.233-.371-.236-.372-.236-.374-.242-.375-.243-.376-.24-.362-.788-1.206-.765-1.195-.746-1.2-.728-1.204-.71-1.207-.694-1.21-.674-1.214-.659-1.216-.64-1.219-.623-1.223-.605-1.225-.589-1.223-.57-1.229-.552-1.23-.536-1.23-.519-1.233-.5-1.235-.483-1.233-.466-1.236-.45-1.236-.431-1.236-.415-1.239-.396-1.236-.379-1.238-.362-1.236-.344-1.236-.327-1.236-.312-1.236-.293-1.235-.275-1.232-.258-1.232-.242-1.226-.023-.129-.02-.13-.019-.13-.016-.13-.016-.133-.013-.136-.01-.138-.01-.136-.006-.135-.006-.141-.003-.142-.001-.141v-.144l.003-.142.006-.148.006-.144.007-.144.012-.149.012-.146.013-.148.016-.151.016-.149.02-.149.02-.149.022-.149.025-.149.025-.152.028-.154.029-.148.031-.154.032-.152.031-.144.06-.255.063-.248.067-.246.07-.236.072-.227.076-.217.079-.208.082-.195.083-.18.031-.063.259.231.287.268.287.27.284.27.281.275.281.274.278.281.277.28.274.284.271.287.268.289.267.289.265.293.262.296.259.296.256.302.256.3.252.305.249.305.246.308.245.309.242.312.239.311.236.318.234.318.231.318.227.321.224.322.22.319.393.587.382.587.375.592.368.598.362.602.356.608.349.608.344.618.338.618.333.623.33.628.324.63.321.633.316.637.313.64.309.643.309.646.303.647.303.65.268.58c-.196 2.083-.331 4.178-.331 6.296 0 7.546 1.301 14.878 3.687 21.918zm283.66-11.229l-.187-.321-.318-.543-.313-.546-.313-.551-.312-.554-.312-.557-.311-.56-.311-.561-.312-.564-.312-.567-.312-.568-.312-.568-.315-.571-.318-.573-.318-.574-.322-.573-.325-.574-.328-.577-.331-.571-.335-.574-.353-.592-.35-.561-.334-.533-.334-.53-.335-.529-.335-.53-.337-.527-.337-.527-.337-.526-.674-1.047-.335-.523-.337-.52-.334-.523-.334-.52-.334-.52-.331-.521-.318-.498.04.019.353.164.357.163.365.161.368.16.453.186.464.157.645.108.738-.019.776-.199.715-.381.573-.498.41-.53.275-.51.177-.466.113-.419.07-.384.042-.354.02-.337.006-.321-.007-.312-.018-.306-.026-.3-.032-.296-.04-.29-.045-.287-.051-.287-.056-.283-.06-.278-.066-.277-.067-.272-.07-.265-.076-.262-.079-.258-.082-.252-.086-.246-.089-.243-.088-.22-.12-.287-.111-.264-.111-.265-.221-.533-.11-.265-.111-.264-.11-.268-.111-.268-.11-.265-.11-.268-.108-.268-.111-.264-.218-.535-.111-.27-.111-.268-.108-.267-.111-.268-.11-.267-.11-.268-.11-.268-.11-.267-.111-.271-.11-.267-.11-.268-.111-.267-.11-.268-.042-.103.04-.157.073-.294.075-.294.073-.294.073-.293.075-.294.073-.293.075-.294.072-.296.022-.088.176-.13.179-.133.177-.133.174-.13.177-.13.179-.133.177-.133.174-.13.177-.132.179-.133.177-.13.174-.132.177-.133.176-.13.179-.133.176-.13.176-.132.179-.133.177-.133.176-.13.176-.132.012-.007.171.023.211.025.202.026.201.023.196.022.183.021.179.022.171.021.167.022.154.022.148.023.142.023.132.025.123.026.114.025.107.026.095.028.085.028.076.025.069.028.059.026.053.026.042.021.038.025.034.022.053.038.218.173.242.196.24.198.239.202.234.204.233.209.23.211.227.211.224.214.223.218.218.223.214.224.212.226.208.229.204.23.199.233.195.234.193.239.188.239.182.242.179.242.174.246.168.246.164.248.158.25.152.252.149.253.142.255.139.256.132.256.127.261.116.248.067.155.061.154.057.154.051.16.05.164.045.168.042.176.038.176.034.182.032.189.028.192.022.198.022.199.016.202.013.208.009.211.006.212.003.22v.22l-.004.224-.007.226-.01.229-.012.23-.016.233-.019.231-.019.237-.025.237-.025.236-.026.24-.031.239-.031.243-.029.227-.047.312-.051.302-.057.306-.065.306-.069.309-.075.312-.081.315-.085.315-.092.318-.094.324-.101.324-.103.328-.107.33-.11.334-.114.337-.114.34-.12.341-.12.346-.123.35-.122.353-.123.356-.123.359-.125.363-.122.368-.123.371-.12.375-.119.381-.114.385-.113.385-.108.396-.107.396-.095.391-.069.28-.064.272-.066.271-.064.27-.065.272-.066.278-.065.275-.063.277-.065.28-.063.281-.061.281-.061.283-.06.284-.06.289-.059.287-.056.289-.054.29-.054.293-.051.293-.05.294-.048.294-.045.296-.044.303-.041.299-.038.302-.037.305-.032.305-.032.306-.026.308-.023.309-.022.313-.016.316-.019.457-.01.46-.003.457.003.453.01.448.016.445.019.441.025.437.028.434.029.428.032.426.035.42.037.417.035.413.037.41zm-286.229-41.625l-.215-.246-.584-.667-.598-.675-.611-.687-.624-.691-.634-.7-.649-.703-.662-.709-.675-.71-.688-.712-.703-.712-.718-.71-.729-.706-.746-.703-.759-.699-.775-.69-.788-.683-.807-.674-.819-.662-.836-.65-.853-.637-.869-.62-.886-.604-.41-.267C-128.121 4.487-69.007-26.81 0-26.81c69.714 0 129.317 31.949 153.592 77.105l-.135-.06-.781-.341-.779-.343-.778-.337-.782-.34-.779-.337-.779-.335-.778-.337-.779-.334-.778-.334-.776-.334-.778-.334-.776-.334-.776-.334-.773-.334-.773-.335-.773-.335-.772-.335-.771-.338-.769-.338-1.638-.724-1.522.302-.623.142-.612.154-.602.17-.596.183-.583.198-.574.211-.565.224-.555.237-.543.252-.535.265-.523.277-.511.29-.5.303-.491.318-.479.328-.466.34-.454.349-.444.365-.429.374-.417.387-.406.397-.391.406-.378.417-.366.429-.353.437-.338.447-.325.456-.168.253C99.578 21.155 53.355.001 0 .001c-54.611 0-101.783 22.151-123.913 54.215l-.01.002-.371.07-.366.078-.363.086-.36.095-.359.103-.354.113-.349.117-.346.125-.344.13-.34.141-.334.144-.333.149-.328.157-.325.164-.318.168-.315.171-.312.179-.305.185-.302.185-.296.192-.308.209-.385.277-.381.297-.365.309-.349.318-.334.328-.316.335-.302.343-.287.349-.272.356-.256.357-.243.362-.23.363-.217.366-.205.368-.193.368-.182.369-.173.369-.16.365-.152.363-.142.362z" transform="matrix(1.333333 0 0 -1.333333 410.8476 658.50267)"/></g><path d="M128.725 342.172h362.88v139.68h-362.88z" transform="matrix(1.333333 0 0 -1.333333 0 1056)" clip-path="url(#E)"/><path d="M0 0l-.267.152L.774 2.527l.183-.091c0-.129.028-.241.085-.332.123-.213.38-.416.774-.606s.837-.342 1.325-.457A5.78 5.78 0 0 1 4.475.867c.667 0 1.34.102 2.023.313.683.205 1.026.568 1.026 1.093 0 .516-.223.813-.673.893s-1.385.166-2.807.273-2.477.362-3.163.776S-.148 5.377-.148 6.453c0 .408.094.805.28 1.195s.475.735.859 1.04c.384.31.865.55 1.448.728s1.246.264 1.995.264c.629 0 1.18-.045 1.661-.135l1.162-.283.994-.352c.372-.135.61-.199.721-.199.179 0 .305.039.377.123l.221-.162-1.294-2.434-.182.075c-.019.156-.073.308-.158.453-.123.183-.368.373-.729.57s-.785.361-1.266.482-.962.184-1.45.184c-.633 0-1.209-.1-1.722-.303s-.77-.492-.77-.875c0-.529.207-.838.622-.924.416-.091 1.354-.203 2.814-.341s2.53-.411 3.213-.815S9.67 3.604 9.67 2.547c0-1.207-.528-2.07-1.589-2.586s-2.25-.772-3.565-.772c-.853 0-1.542.065-2.068.196s-.997.293-1.412.484C.623.055.359.152.249.152.157.152.073.1 0 0" transform="matrix(1.333333 0 0 -1.333333 339.26947 636.164)" clip-path="url(#F)"/><path d="M0 0h-3.122v.348c.325 0 .488.119.488.351v8.869c0 .231-.163.35-.488.35v.338H0v-.338c-.324 0-.488-.119-.488-.35V.699c0-.232.164-.351.488-.351z" transform="matrix(1.333333 0 0 -1.333333 360.2148 637.0964)" clip-path="url(#G)"/><path d="M0 0h-2.794v.348a.31.31 0 0 1 .358.351v8.869c0 .112-.034.2-.1.26s-.154.09-.258.09v.338H.44v-.338c-.103 0-.154-.066-.154-.199 0-.106.127-.287.378-.537l5.419-5.823v6.209c0 .231-.164.35-.488.35v.338h2.848v-.338c-.104 0-.189-.031-.258-.096s-.101-.148-.101-.254V.699a.31.31 0 0 1 .359-.351V0H5.381v.348c.167 0 .248.058.248.172 0 .093-.1.248-.301.462L-.434 7.188V.699c0-.232.144-.351.434-.351z" transform="matrix(1.333333 0 0 -1.333333 368.34173 637.0964)" clip-path="url(#H)"/><path d="M0 0l1.246-2.066-.148-.153L1-2.205l-.116.006c-.034 0-.337-.145-.903-.438a12.8 12.8 0 0 0-1.847-.773c-.667-.223-1.36-.334-2.08-.334-.812 0-1.574.111-2.291.334s-1.363.56-1.935 1.014A4.65 4.65 0 0 0-9.51-.734c-.318.654-.475 1.4-.475 2.244s.157 1.592.475 2.242.759 1.201 1.322 1.652 1.211.785 1.932 1.008 1.492.334 2.31.334c.979 0 2.017-.16 3.115-.48l.897-.315.44-.174c.057 0 .145.084.268.254l.287-.238-1.477-2.348-.191.133a2.12 2.12 0 0 1-.039.254c-.056.277-.452.551-1.195.824s-1.441.412-2.105.412a4.82 4.82 0 0 1-1.527-.232c-.468-.154-.89-.383-1.261-.682s-.661-.675-.869-1.121-.308-.929-.308-1.469c0-.72.179-1.347.535-1.88s.84-.94 1.447-1.219 1.268-.42 1.983-.42c.509 0 1.064.078 1.658.236s1.099.36 1.501.606.601.486.601.726c0 .055-.025.137-.082.237z" transform="matrix(1.333333 0 0 -1.333333 396.58787 632.25267)" clip-path="url(#I)"/><path d="M0 0v-2.592h-.342c0 .283-.24.424-.718.424h-6.123v-2.418h3.706c.277 0 .479.045.604.139s.189.271.189.541h.343v-3.055h-.343c0 .283-.063.469-.192.563s-.33.134-.601.134h-3.706v-2.691h6.309c.194 0 .353.045.469.135s.176.216.176.375H.11v-2.725h-.339c0 .184-.053.299-.158.35s-.267.074-.487.074h-8.795v.348a.36.36 0 0 1 .239.087c.066.055.101.145.101.264v8.869c0 .112-.032.199-.098.26s-.144.09-.242.09v.338h8.609c.478 0 .72.164.72.49z" transform="matrix(1.333333 0 0 -1.333333 415.1484 622.76827)" clip-path="url(#J)"/><path d="M0 0h-3.103v.236c.312 0 .469.18.469.537v6.532c-.239 0-.478-.037-.72-.1-.24-.068-.391-.187-.451-.365h-.219v2.453h.219c0-.096.051-.17.152-.229a.7.7 0 0 1 .336-.082.76.76 0 0 1 .545.202.66.66 0 0 1 .21.496c0 .172-.034.283-.103.345s-.187.1-.347.12v.234h3.05v-.234c-.35-.045-.525-.188-.525-.426V.773c0-.357.163-.537.487-.537z" transform="matrix(1.333333 0 0 -1.333333 434.48307 637.0964)" clip-path="url(#K)"/><path d="M0 0c-.689 0-1.262-.139-1.715-.416s-.682-.727-.682-1.348c0-.615.226-1.066.682-1.349S-.689-3.539 0-3.539c.702 0 1.274.143 1.725.426s.673.734.673 1.349c0 .621-.223 1.073-.673 1.348S.702 0 0 0m-4.396-7.963l-.148.131 1.133 2.172.221-.143c0-.183.044-.338.128-.463.246-.31.626-.541 1.139-.703s1.011-.24 1.488-.24c.967 0 1.713.258 2.242.77s.827 1.271.893 2.279C1.467-4.814.384-5.143-.545-5.143c-.657 0-1.29.11-1.903.327s-1.115.556-1.507 1.017-.589 1.035-.589 1.723c0 .836.227 1.535.683 2.099s1.042.979 1.768 1.248a6.39 6.39 0 0 0 2.266.407c.91 0 1.719-.207 2.427-.621A4.32 4.32 0 0 0 4.258-.689c.396-.75.595-1.59.595-2.522a6.54 6.54 0 0 0-.387-2.283c-.259-.697-.627-1.293-1.102-1.787s-1.051-.871-1.721-1.135-1.41-.397-2.206-.397c-.91 0-1.722.161-2.432.479l-.498.248-.343.178c-.079.039-.144.058-.201.058-.142 0-.262-.039-.359-.113" transform="matrix(1.333333 0 0 -1.333333 447.414 625.4948)" clip-path="url(#L)"/><path d="M0 0l4.739 7.693h-6.196c-.173 0-.309-.033-.409-.093s-.155-.194-.155-.387h-.229V9.83h.229c0-.23.19-.348.564-.348h7.93c.167 0 .302.034.409.102.11.062.164.146.164.246h.22V8.096L2.848.738 2.587.332l-.18-.297c-.056-.105-.085-.195-.085-.269 0-.2.12-.303.363-.303v-.236H-.721v.236c.108 0 .23.051.371.158A1.28 1.28 0 0 1 0 0" transform="matrix(1.333333 0 0 -1.333333 459.37627 636.06507)" clip-path="url(#M)"/><path d="M0 0l-.177-.113-1.504 1.99.223.17c.079-.065.187-.096.321-.096.033 0 .161.084.388.254s.5.344.821.522c.321.173.73.328 1.231.461s1.092.199 1.774.199c.528 0 1.035-.055 1.524-.16s.933-.278 1.352-.51.749-.526.988-.879S7.3 1.063 7.3.566a2.28 2.28 0 0 0-.397-1.318 1.7 1.7 0 0 0-1.069-.73v-.039c.541-.125.984-.385 1.327-.782s.517-.877.517-1.443c0-.818-.252-1.479-.752-1.977s-1.124-.853-1.872-1.066a8.29 8.29 0 0 0-2.244-.315c-.898 0-1.86.196-2.886.592l-.894.397c-.321.15-.507.228-.563.228-.085 0-.186-.043-.302-.123l-.167.065 1.095 2.802.205-.123c-.013-.048-.019-.138-.019-.263 0-.371.214-.703.645-.996s.937-.516 1.526-.67 1.089-.231 1.508-.231c.387 0 .78.045 1.177.137a2.46 2.46 0 0 1 1.031.5c.293.242.438.557.438.947 0 .537-.264.908-.796 1.113s-1.118.313-1.75.313c-.362 0-.639-.035-.833-.104s-.328-.209-.401-.414h-.222v2.651h.222c.054-.43.466-.641 1.234-.641a4.19 4.19 0 0 1 1.017.127 2.15 2.15 0 0 1 .887.442c.249.212.375.486.375.828 0 .824-.806 1.236-2.417 1.236a4.98 4.98 0 0 1-1.344-.199c-.469-.133-.859-.299-1.177-.502S-.076.596-.076.389A.91.91 0 0 1 0 0" transform="matrix(1.333333 0 0 -1.333333 474.276 627.77347)" clip-path="url(#N)"/></g></svg>